<?xml version="1.0" encoding="utf-8"?>
<svg viewBox="0 23.944 190.033 60.808" xmlns="http://www.w3.org/2000/svg" xmlns:bx="https://boxy-svg.com">
  <defs>
    <linearGradient id="color-0" bx:pinned="true">
      <stop style="stop-color: #d8d8d8;"/>
    </linearGradient>
    <linearGradient id="color-1" bx:pinned="true">
      <stop style="stop-color: #d8d8d8;"/>
    </linearGradient>
  </defs>
  <g id="SvgjsG2045" featurekey="Rs8Ttr-0" transform="matrix(0.262608, 0, 0, 0.262608, -22.934425, -1.822277)" fill="url(#SvgjsLinearGradient2053)">
    <title xmlns="http://www.w3.org/2000/svg">Artboard 1 copy 24</title>
    <g xmlns="http://www.w3.org/2000/svg" data-name="Immersive experience ">
      <path d="M348.75,193.09a23.63,23.63,0,0,0-35.7-13.93l-53.22-64.55a6.62,6.62,0,1,0-11.54-4.19l-101.46,18.9a14.2,14.2,0,1,0-20.94,15.83l.34.18-24.56,53a7.08,7.08,0,1,0-2,13.86,7.13,7.13,0,0,0,4.12-1.32l91.19,95.8a10.83,10.83,0,0,0,2.67,16.48,10.78,10.78,0,0,0,5.48,1.5,11,11,0,0,0,2.75-.35,10.85,10.85,0,0,0,5.84-17.14l97.63-91.3a23.76,23.76,0,0,0,4.58,3.53,23.51,23.51,0,0,0,11.95,3.27,23.81,23.81,0,0,0,6-.77,23.66,23.66,0,0,0,16.95-28.84Zm-19.46,19.17a13.57,13.57,0,0,1-10.35-1.44,13.76,13.76,0,0,1-2.34-1.74,13.77,13.77,0,0,1-4-6.6,13.79,13.79,0,0,1-.36-2.07,13,13,0,0,1,.82-6.23,13.81,13.81,0,0,1,1-2.06c.06-.1.13-.19.19-.29a13.79,13.79,0,0,1,1.22-1.67,13.48,13.48,0,0,1,4-3.19,13.58,13.58,0,0,1,6.39-1.59,13.66,13.66,0,0,1,3.41,26.88ZM207.78,312.63a4.81,4.81,0,0,1-.51,3.67h0a4.85,4.85,0,1,1-8.35-4.91c.06-.1.13-.18.2-.27a4.78,4.78,0,0,1,1.28-1.28l.17-.1a4.82,4.82,0,0,1,1.31-.58h0c.16,0,.31-.07.47-.09a4.88,4.88,0,0,1,.75-.07,5,5,0,0,1,2.45.67c.11.07.2.15.31.22a4.77,4.77,0,0,1,1.37,1.46A4.82,4.82,0,0,1,207.78,312.63Zm-7.42-9.28-.17.05-37.57-99,34.25-.93,4.71,99.59A11,11,0,0,0,200.36,303.36ZM100.91,208a3.08,3.08,0,1,1-1.28-5.88c.1,0,.2,0,.3,0l.28,0a3,3,0,0,1,1,.35,3,3,0,0,1,1.39,3.5l0,.08a3.07,3.07,0,0,1-.21.49s0,.1-.07.15A3.06,3.06,0,0,1,100.91,208Zm26.82-78.19a6.17,6.17,0,0,1,11.16,1c.07.18.15.35.2.54a6.23,6.23,0,0,1,.19,1.42c0,.06,0,.12,0,.18a6.13,6.13,0,0,1-.39,2.12,6.27,6.27,0,0,1-.47,1,6.2,6.2,0,0,1-7,2.83l-.14,0a6.23,6.23,0,0,1-1.34-.58l-.33-.22A6.21,6.21,0,0,1,127.73,129.76Zm17.6,10.34a14.27,14.27,0,0,0,1.32-3l43.12,11.18L150.3,172l-10.17-26.78A14.11,14.11,0,0,0,145.33,140.1Zm107.31-31.22a2.6,2.6,0,0,1,1.6-1.21,2.66,2.66,0,0,1,.66-.08,2.61,2.61,0,0,1,2.3,3.85l0,.1a2.59,2.59,0,0,1-1.28,1.09l-.29.11a2.61,2.61,0,0,1-1.34,0,3.5,3.5,0,0,1-.68-.27l-.19-.14a2.58,2.58,0,0,1-.67-.7l-.11-.18a2.62,2.62,0,0,1-.24-.58,2.66,2.66,0,0,1,0-.27,2.69,2.69,0,0,1,.32-1.71Zm-51.77,77.67a4.53,4.53,0,1,1-3.9-6.83h0a4.44,4.44,0,0,1,3.76,2.1,3.83,3.83,0,0,1,.68,1.88A4.49,4.49,0,0,1,200.87,186.55Zm3.18-7,17.35-23.08,21.26,5.51a11.9,11.9,0,0,0,.27,4.68l0,.07-38.36,13.76A8.53,8.53,0,0,0,204,179.52ZM251.77,116a6.58,6.58,0,0,0,2.07.7l-.28,35a11.91,11.91,0,0,0-9.37,5.84c-.06.1-.1.2-.16.3l-20.12-4.79Zm8.49,48.77a5.88,5.88,0,0,1-.69,1.83,6,6,0,0,1-.66.91,5.9,5.9,0,0,1-9.59-1,6,6,0,0,1-.77-3.06A6,6,0,0,1,253,157.9c.18,0,.36-.07.53-.1a5.92,5.92,0,0,1,1-.09,6.25,6.25,0,0,1,3,.82A5.93,5.93,0,0,1,260.26,164.8ZM250,114.65l-30.46,37.4-21.77-5.18,52.11-32.36Zm-33.08,40.62-17.06,21a8.51,8.51,0,0,0-11.38,8.82l-30.72,6.6-6.12-16.12,42.22-26.23ZM153,192.66l-44.3,9.51,38.48-23.9Zm.76,1.88L157,202.6l-46.64,1.26Zm4.68-1L188.89,187a8.44,8.44,0,0,0,7.47,5.74l.42,8.78-34.91.94Zm39.88-.88a8.49,8.49,0,0,0,6.91-10.32l38.37-13.76a11.89,11.89,0,0,0,20.7,1.69l.59.3,11.41,5.72,13.11,6.48,13.16,6.4,1.45.7a23.39,23.39,0,0,0-1.85,8.81l-103.42,2.79ZM309.3,182.16a23.75,23.75,0,0,0-3.84,4.89l-.1.18-1.43-.73-13.06-6.6-13.1-6.52-11.46-5.62-.57-.28a11.89,11.89,0,0,0-10.18-15.7l.28-35a6.67,6.67,0,0,0,2.27-.76Zm-60.64-69.77c0,.11.08.22.13.33L193.67,145.9l-46.51-11.08a14.08,14.08,0,0,0,0-3.53ZM128,146.18a13.76,13.76,0,0,0,6.55.85l11.19,27.7-41.58,25a7,7,0,0,0-.72-.53Zm-22.85,63.37a7.09,7.09,0,0,0,.55-.8h0a7,7,0,0,0,.92-2.78l51.19-1.38,40.27,99.64a10.73,10.73,0,0,0-1.75,1.12Zm105.1,96.2a11,11,0,0,0-1.71-1.24,10.79,10.79,0,0,0-5-1.49l-4.71-99.54,103.39-2.79A23.91,23.91,0,0,0,303,205a23.54,23.54,0,0,0,5,9.46Z" style="fill: rgb(255, 255, 255);"/>
    </g>
  </g>
  <g id="SvgjsG2046" featurekey="7fT3kx-0" transform="matrix(0.194344, 0, 0, 0.349993, 39.002254, 73.633812)" fill="url(#SvgjsLinearGradient2056)" style="">
    <path d="M7.14 11.64 q1.34 -1.4 2.42 -3.12 t1.72 -3.44 l2.5 0 q-1.02 2.38 -2.48 4.56 q-1.32 1.98 -3.08 3.9 l0 6.46 l-2.16 0 l0 -6.46 q-1.76 -1.92 -3.08 -3.9 q-1.46 -2.18 -2.48 -4.56 l2.5 0 q0.64 1.72 1.72 3.44 t2.42 3.12 z M39.028 12.440000000000001 q0 -1.6 -0.82 -2.9 q-0.78 -1.26 -2.13 -1.98 t-2.93 -0.72 q-1.64 0 -2.99 0.74 t-2.11 2.02 q-0.78 1.34 -0.78 2.98 q0 1.56 0.84 2.88 q0.8 1.24 2.15 1.97 t2.92 0.73 t2.92 -0.76 t2.13 -2.04 q0.8 -1.34 0.8 -2.92 z M41.188 12.559999999999999 q0 2.16 -1.12 3.98 q-1.08 1.74 -2.93 2.77 t-3.99 1.03 q-2.22 0 -4.08 -1.08 q-1.82 -1.04 -2.86 -2.86 q-1.08 -1.86 -1.08 -4.08 q0 -2.14 1.14 -3.94 q1.08 -1.72 2.93 -2.73 t3.97 -1.01 q2.18 0 4.04 1.06 q1.82 1.04 2.88 2.82 q1.1 1.86 1.1 4.04 z M60.736000000000004 20.34 q-2.1 0 -3.61 -0.73 t-2.3 -2.11 t-0.79 -3.3 l0 -9.12 l2.16 0 l0 9.12 q0 1.92 1.18 2.94 t3.36 1.02 t3.36 -1.02 t1.18 -2.94 l0 -9.12 l2.16 0 l0 9.12 q0 1.92 -0.79 3.3 t-2.3 2.11 t-3.61 0.73 z M83.464 7.26 l0 4.96 q0.62 -0.36 1.38 -0.48 q0.56 -0.1 1.44 -0.1 l2.84 0 q1.18 0 1.84 -0.54 q0.7 -0.58 0.7 -1.74 q0 -1.1 -0.74 -1.64 q-0.64 -0.46 -1.8 -0.46 l-5.66 0 z M89.84400000000001 17.64 l-1.82 -3.82 l-1.74 0 q-0.82 0 -1.44 0.1 q-0.76 0.14 -1.38 0.48 l0 5.6 l-2.18 0 l0 -14.92 l7.84 0 q1.38 0 2.44 0.52 t1.64 1.48 q0.62 1.02 0.62 2.4 q0 1.68 -0.9 2.76 t-2.54 1.5 l1.16 2.38 q0.5 0.74 0.78 1.04 q0.34 0.38 0.65 0.51 t0.81 0.13 l0.22 0 l0.48 -0.02 l0 2.22 q-1.16 0 -1.72 -0.08 q-0.94 -0.16 -1.6 -0.62 q-0.78 -0.56 -1.32 -1.66 z M127.82000000000001 11.46 l2.64 0 q2.2 0 2.2 -2.12 q0 -1.1 -0.55 -1.59 t-1.65 -0.49 l-5.48 0 l0 4.8 q0.62 -0.36 1.4 -0.5 q0.58 -0.1 1.44 -0.1 z M124.98 20 l-2.18 0 l0 -14.92 l7.66 0 q1.32 0 2.3 0.51 t1.52 1.47 t0.54 2.27 t-0.54 2.29 t-1.53 1.51 t-2.29 0.53 l-2.64 0 q-1.72 0 -2.84 0.6 l0 5.74 z M149.848 14.02 l0 3.8 l9.2 0 l0 2.18 l-11.38 0 l0 -14.92 l10.5 0 l0 2.2 l-8.32 0 l0 4.52 q0.62 -0.36 1.38 -0.48 q0.56 -0.1 1.44 -0.1 l3.26 0 l0 2.22 l-3.26 0 q-0.82 0 -1.44 0.1 q-0.76 0.14 -1.38 0.48 z M174.376 7.26 l0 4.96 q0.62 -0.36 1.38 -0.48 q0.56 -0.1 1.44 -0.1 l2.84 0 q1.18 0 1.84 -0.54 q0.7 -0.58 0.7 -1.74 q0 -1.1 -0.74 -1.64 q-0.64 -0.46 -1.8 -0.46 l-5.66 0 z M180.756 17.64 l-1.82 -3.82 l-1.74 0 q-0.82 0 -1.44 0.1 q-0.76 0.14 -1.38 0.48 l0 5.6 l-2.18 0 l0 -14.92 l7.84 0 q1.38 0 2.44 0.52 t1.64 1.48 q0.62 1.02 0.62 2.4 q0 1.68 -0.9 2.76 t-2.54 1.5 l1.16 2.38 q0.5 0.74 0.78 1.04 q0.34 0.38 0.65 0.51 t0.81 0.13 l0.22 0 l0.48 -0.02 l0 2.22 q-1.16 0 -1.72 -0.08 q-0.94 -0.16 -1.6 -0.62 q-0.78 -0.56 -1.32 -1.66 z M210.24400000000003 15.46 q0 1.46 -0.88 2.6 q-0.86 1.08 -2.37 1.68 t-3.41 0.6 q-1.74 0 -3.38 -0.81 t-2.76 -2.25 l1.56 -1.46 q1.94 2.34 4.58 2.34 q1.16 0 2.12 -0.28 q1.06 -0.32 1.64 -0.9 q0.66 -0.64 0.66 -1.52 q0 -1.06 -0.66 -1.6 q-0.56 -0.46 -1.66 -0.6 q-0.64 -0.08 -2.1 -0.08 q-2.68 0 -4.09 -0.98 t-1.41 -2.88 q0 -1.2 0.71 -2.28 t1.95 -1.72 q1.28 -0.68 2.84 -0.68 q1.76 0 3.18 0.54 q1.52 0.58 2.82 1.82 l-1.36 1.6 q-1.22 -0.98 -2.22 -1.37 t-2.42 -0.39 q-0.82 0 -1.53 0.34 t-1.13 0.91 t-0.42 1.21 q0 1.72 3.18 1.72 q2.54 0 4.02 0.52 q1.4 0.5 2 1.52 q0.54 0.9 0.54 2.4 z M235.99200000000002 12.440000000000001 q0 -1.6 -0.82 -2.9 q-0.78 -1.26 -2.13 -1.98 t-2.93 -0.72 q-1.64 0 -2.99 0.74 t-2.11 2.02 q-0.78 1.34 -0.78 2.98 q0 1.56 0.84 2.88 q0.8 1.24 2.15 1.97 t2.92 0.73 t2.92 -0.76 t2.13 -2.04 q0.8 -1.34 0.8 -2.92 z M238.15200000000002 12.559999999999999 q0 2.16 -1.12 3.98 q-1.08 1.74 -2.93 2.77 t-3.99 1.03 q-2.22 0 -4.08 -1.08 q-1.82 -1.04 -2.86 -2.86 q-1.08 -1.86 -1.08 -4.08 q0 -2.14 1.14 -3.94 q1.08 -1.72 2.93 -2.73 t3.97 -1.01 q2.18 0 4.04 1.06 q1.82 1.04 2.88 2.82 q1.1 1.86 1.1 4.04 z M251.64000000000001 7.18 l-1.74 -2.1 l2.82 0 l9.58 11.4 l0 -11.4 l2.2 0 l0 14.92 l-2.16 0 l-8.56 -10.26 l0 10.26 l-2.14 0 l0 -12.82 z M283.208 6.66 l-0.82 -1.84 l2.4 0 l7.18 15.18 l-2.44 0 l-0.98 -2.18 l-4.54 0 q-1.28 0 -2.3 0.24 q-0.9 0.22 -1.5 0.58 q-0.54 0.32 -0.72 0.66 l-0.38 0.7 l-2.36 0 z M284.808 15.620000000000001 l2.76 0 l-3.26 -6.3 l-3.3 7.14 q0.44 -0.38 1.34 -0.6 q1.02 -0.24 2.46 -0.24 z M314.87600000000003 20 l-10.46 0 l0 -14.92 l2.18 0 l0 12.74 l8.28 0 l0 2.18 z M352.652 20 l-10.46 0 l0 -14.92 l2.18 0 l0 12.74 l8.28 0 l0 2.18 z M367.0799999999999 14.02 l0 3.8 l9.2 0 l0 2.18 l-11.38 0 l0 -14.92 l10.5 0 l0 2.2 l-8.32 0 l0 4.52 q0.62 -0.36 1.38 -0.48 q0.56 -0.1 1.44 -0.1 l3.26 0 l0 2.22 l-3.26 0 q-0.82 0 -1.44 0.1 q-0.76 0.14 -1.38 0.48 z M394.08799999999997 6.66 l-0.82 -1.84 l2.4 0 l7.18 15.18 l-2.44 0 l-0.98 -2.18 l-4.54 0 q-1.28 0 -2.3 0.24 q-0.9 0.22 -1.5 0.58 q-0.54 0.32 -0.72 0.66 l-0.38 0.7 l-2.36 0 z M395.68799999999993 15.620000000000001 l2.76 0 l-3.26 -6.3 l-3.3 7.14 q0.44 -0.38 1.34 -0.6 q1.02 -0.24 2.46 -0.24 z M417.47599999999994 7.26 l0 4.96 q0.62 -0.36 1.38 -0.48 q0.56 -0.1 1.44 -0.1 l2.84 0 q1.18 0 1.84 -0.54 q0.7 -0.58 0.7 -1.74 q0 -1.1 -0.74 -1.64 q-0.64 -0.46 -1.8 -0.46 l-5.66 0 z M423.85599999999994 17.64 l-1.82 -3.82 l-1.74 0 q-0.82 0 -1.44 0.1 q-0.76 0.14 -1.38 0.48 l0 5.6 l-2.18 0 l0 -14.92 l7.84 0 q1.38 0 2.44 0.52 t1.64 1.48 q0.62 1.02 0.62 2.4 q0 1.68 -0.9 2.76 t-2.54 1.5 l1.16 2.38 q0.5 0.74 0.78 1.04 q0.34 0.38 0.65 0.51 t0.81 0.13 l0.22 0 l0.48 -0.02 l0 2.22 q-1.16 0 -1.72 -0.08 q-0.94 -0.16 -1.6 -0.62 q-0.78 -0.56 -1.32 -1.66 z M442.1839999999999 7.18 l-1.74 -2.1 l2.82 0 l9.58 11.4 l0 -11.4 l2.2 0 l0 14.92 l-2.16 0 l-8.56 -10.26 l0 10.26 l-2.14 0 l0 -12.82 z M471.2319999999999 20 l-2.14 0 l0 -14.92 l2.14 0 l0 14.92 z M485.7199999999999 7.18 l-1.74 -2.1 l2.82 0 l9.58 11.4 l0 -11.4 l2.2 0 l0 14.92 l-2.16 0 l-8.56 -10.26 l0 10.26 l-2.14 0 l0 -12.82 z M525.4079999999999 7 l-1.4 1.64 q-0.82 -0.84 -1.96 -1.32 t-2.4 -0.48 q-1.64 0 -2.99 0.74 t-2.11 2.02 q-0.78 1.34 -0.78 2.98 q0 1.56 0.84 2.88 q0.8 1.24 2.15 1.97 t2.91 0.73 q1.1 0 2.11 -0.38 t1.81 -1.06 l0 -2.72 l-1.92 0 l-0.94 -2.16 l5.02 0 l0 5.8 q-1.14 1.28 -2.73 1.99 t-3.37 0.71 q-2.22 0 -4.08 -1.08 q-1.82 -1.04 -2.86 -2.86 q-1.08 -1.86 -1.08 -4.08 q0 -2.14 1.14 -3.94 q1.08 -1.72 2.93 -2.73 t3.97 -1.01 q1.66 0 3.16 0.64 q1.46 0.6 2.58 1.72 z M558.824 6.66 l-0.82 -1.84 l2.4 0 l7.18 15.18 l-2.44 0 l-0.98 -2.18 l-4.54 0 q-1.28 0 -2.3 0.24 q-0.9 0.22 -1.5 0.58 q-0.54 0.32 -0.72 0.66 l-0.38 0.7 l-2.36 0 z M560.424 15.620000000000001 l2.76 0 l-3.26 -6.3 l-3.3 7.14 q0.44 -0.38 1.34 -0.6 q1.02 -0.24 2.46 -0.24 z M591.632 15.46 q0 1.46 -0.88 2.6 q-0.86 1.08 -2.37 1.68 t-3.41 0.6 q-1.74 0 -3.38 -0.81 t-2.76 -2.25 l1.56 -1.46 q1.94 2.34 4.58 2.34 q1.16 0 2.12 -0.28 q1.06 -0.32 1.64 -0.9 q0.66 -0.64 0.66 -1.52 q0 -1.06 -0.66 -1.6 q-0.56 -0.46 -1.66 -0.6 q-0.64 -0.08 -2.1 -0.08 q-2.68 0 -4.09 -0.98 t-1.41 -2.88 q0 -1.2 0.71 -2.28 t1.95 -1.72 q1.28 -0.68 2.84 -0.68 q1.76 0 3.18 0.54 q1.52 0.58 2.82 1.82 l-1.36 1.6 q-1.22 -0.98 -2.22 -1.37 t-2.42 -0.39 q-0.82 0 -1.53 0.34 t-1.13 0.91 t-0.42 1.21 q0 1.72 3.18 1.72 q2.54 0 4.02 0.52 q1.4 0.5 2 1.52 q0.54 0.9 0.54 2.4 z M616.0799999999999 15.46 q0 1.46 -0.88 2.6 q-0.86 1.08 -2.37 1.68 t-3.41 0.6 q-1.74 0 -3.38 -0.81 t-2.76 -2.25 l1.56 -1.46 q1.94 2.34 4.58 2.34 q1.16 0 2.12 -0.28 q1.06 -0.32 1.64 -0.9 q0.66 -0.64 0.66 -1.52 q0 -1.06 -0.66 -1.6 q-0.56 -0.46 -1.66 -0.6 q-0.64 -0.08 -2.1 -0.08 q-2.68 0 -4.09 -0.98 t-1.41 -2.88 q0 -1.2 0.71 -2.28 t1.95 -1.72 q1.28 -0.68 2.84 -0.68 q1.76 0 3.18 0.54 q1.52 0.58 2.82 1.82 l-1.36 1.6 q-1.22 -0.98 -2.22 -1.37 t-2.42 -0.39 q-0.82 0 -1.53 0.34 t-1.13 0.91 t-0.42 1.21 q0 1.72 3.18 1.72 q2.54 0 4.02 0.52 q1.4 0.5 2 1.52 q0.54 0.9 0.54 2.4 z M631.068 20 l-2.14 0 l0 -14.92 l2.14 0 l0 14.92 z M656.7159999999999 15.46 q0 1.46 -0.88 2.6 q-0.86 1.08 -2.37 1.68 t-3.41 0.6 q-1.74 0 -3.38 -0.81 t-2.76 -2.25 l1.56 -1.46 q1.94 2.34 4.58 2.34 q1.16 0 2.12 -0.28 q1.06 -0.32 1.64 -0.9 q0.66 -0.64 0.66 -1.52 q0 -1.06 -0.66 -1.6 q-0.56 -0.46 -1.66 -0.6 q-0.64 -0.08 -2.1 -0.08 q-2.68 0 -4.09 -0.98 t-1.41 -2.88 q0 -1.2 0.71 -2.28 t1.95 -1.72 q1.28 -0.68 2.84 -0.68 q1.76 0 3.18 0.54 q1.52 0.58 2.82 1.82 l-1.36 1.6 q-1.22 -0.98 -2.22 -1.37 t-2.42 -0.39 q-0.82 0 -1.53 0.34 t-1.13 0.91 t-0.42 1.21 q0 1.72 3.18 1.72 q2.54 0 4.02 0.52 q1.4 0.5 2 1.52 q0.54 0.9 0.54 2.4 z M680.6639999999999 7.279999999999999 l-5.26 0 l0 12.72 l-2.12 0 l0 -12.72 l-5.32 0 l0 -2.2 l12.7 0 l0 2.2 z M695.2919999999999 14.02 l0 3.8 l9.2 0 l0 2.18 l-11.38 0 l0 -14.92 l10.5 0 l0 2.2 l-8.32 0 l0 4.52 q0.62 -0.36 1.38 -0.48 q0.56 -0.1 1.44 -0.1 l3.26 0 l0 2.22 l-3.26 0 q-0.82 0 -1.44 0.1 q-0.76 0.14 -1.38 0.48 z M718.0799999999999 7.18 l-1.74 -2.1 l2.82 0 l9.58 11.4 l0 -11.4 l2.2 0 l0 14.92 l-2.16 0 l-8.56 -10.26 l0 10.26 l-2.14 0 l0 -12.82 z M756.0879999999999 7.279999999999999 l-5.26 0 l0 12.72 l-2.12 0 l0 -12.72 l-5.32 0 l0 -2.2 l12.7 0 l0 2.2 z" style="fill: rgb(255, 255, 255);"/>
  </g>
  <g id="SvgjsG2047" featurekey="nameLeftFeature-0" transform="matrix(2.145411, 0, 0, 2.145411, 69.818588, 28.644348)" fill="#ffffff">
    <path d="M7.22 12.36 l-3.2 0 l0 5.36 l4.84 0 l0 2.28 l-7.86 0 l0 -16.78 l7.86 0 l0 2.28 l-4.84 0 l0 4.62 l3.2 0 l0 2.24 z M10.420000000000002 3.219999999999999 l3.06 0 l0 14.5 l3.56 0 l0 2.28 l-6.62 0 l0 -16.78 z"/>
  </g>
  <g id="SvgjsG2048" featurekey="nameRightFeature-0" transform="matrix(2.145411, 0, 0, 2.145411, 107.802269, 28.779778)" fill="#ffffff">
    <path d="M4.48 3.219999999999999 l0 14.12 l3.24 0 l0 2.66 l-6.82 0 l0 -16.78 l3.58 0 z M7.32 19.6 l0 -1.86 l-3.24 0 l0 -14.12 l-2.78 0 l0 15.98 l6.02 0 z M12.280000000000001 3.2399999999999984 l3.44 0 l4 16.76 l-3.58 0 l-0.72 -3.36 l-2.82 0 l-0.72 3.36 l-3.58 0 z M12.260000000000002 16.240000000000002 l3.5 0 l0.7 3.36 l2.76 0 l-3.82 -15.96 l-2.8 0 l-3.8 15.96 l2.76 0 z M14 7.92 l1.34 6.5 l-2.66 0 z M14.86 14.02 l-0.86 -4.1 l-0.84 4.1 l1.7 0 z"/>
  </g>
</svg>